<mxfile host="Electron" agent="Mozilla/5.0 (Windows NT 10.0; Win64; x64) AppleWebKit/537.36 (KHTML, like Gecko) draw.io/26.1.1 Chrome/132.0.6834.210 Electron/34.3.3 Safari/537.36" version="26.1.1">
  <diagram name="Page-1" id="C3R0a2gzvpbZE9pciNoV">
    <mxGraphModel dx="1290" dy="629" grid="1" gridSize="10" guides="1" tooltips="1" connect="1" arrows="1" fold="1" page="1" pageScale="1" pageWidth="1654" pageHeight="1169" math="0" shadow="0">
      <root>
        <mxCell id="0" />
        <mxCell id="1" parent="0" />
        <mxCell id="g6QIf9VLLvqrXvjE8-ta-9" value="" style="ellipse;whiteSpace=wrap;html=1;aspect=fixed;" vertex="1" parent="1">
          <mxGeometry x="665" y="205" width="90" height="90" as="geometry" />
        </mxCell>
        <mxCell id="g6QIf9VLLvqrXvjE8-ta-16" style="edgeStyle=orthogonalEdgeStyle;rounded=0;orthogonalLoop=1;jettySize=auto;html=1;exitX=0.5;exitY=0;exitDx=0;exitDy=0;entryX=0.5;entryY=0;entryDx=0;entryDy=0;" edge="1" parent="1" source="g6QIf9VLLvqrXvjE8-ta-1" target="g6QIf9VLLvqrXvjE8-ta-9">
          <mxGeometry relative="1" as="geometry" />
        </mxCell>
        <mxCell id="g6QIf9VLLvqrXvjE8-ta-1" value="q0" style="ellipse;whiteSpace=wrap;html=1;aspect=fixed;" vertex="1" parent="1">
          <mxGeometry x="260" y="210" width="80" height="80" as="geometry" />
        </mxCell>
        <mxCell id="g6QIf9VLLvqrXvjE8-ta-2" value="" style="endArrow=classic;html=1;rounded=0;entryX=0;entryY=0.5;entryDx=0;entryDy=0;" edge="1" parent="1" target="g6QIf9VLLvqrXvjE8-ta-1">
          <mxGeometry width="50" height="50" relative="1" as="geometry">
            <mxPoint x="160" y="250" as="sourcePoint" />
            <mxPoint x="230" y="240" as="targetPoint" />
          </mxGeometry>
        </mxCell>
        <mxCell id="g6QIf9VLLvqrXvjE8-ta-3" value="START" style="text;html=1;align=center;verticalAlign=middle;resizable=0;points=[];autosize=1;strokeColor=none;fillColor=none;" vertex="1" parent="1">
          <mxGeometry x="175" y="218" width="60" height="30" as="geometry" />
        </mxCell>
        <mxCell id="g6QIf9VLLvqrXvjE8-ta-4" value="" style="endArrow=classic;html=1;rounded=0;exitX=1;exitY=0.5;exitDx=0;exitDy=0;" edge="1" parent="1" source="g6QIf9VLLvqrXvjE8-ta-1">
          <mxGeometry width="50" height="50" relative="1" as="geometry">
            <mxPoint x="630" y="350" as="sourcePoint" />
            <mxPoint x="460" y="250" as="targetPoint" />
          </mxGeometry>
        </mxCell>
        <mxCell id="g6QIf9VLLvqrXvjE8-ta-5" value="q1" style="ellipse;whiteSpace=wrap;html=1;aspect=fixed;" vertex="1" parent="1">
          <mxGeometry x="460" y="210" width="80" height="80" as="geometry" />
        </mxCell>
        <mxCell id="g6QIf9VLLvqrXvjE8-ta-6" value="0" style="text;html=1;align=center;verticalAlign=middle;resizable=0;points=[];autosize=1;strokeColor=none;fillColor=none;" vertex="1" parent="1">
          <mxGeometry x="385" y="218" width="30" height="30" as="geometry" />
        </mxCell>
        <mxCell id="g6QIf9VLLvqrXvjE8-ta-7" value="" style="endArrow=classic;html=1;rounded=0;exitX=1;exitY=0.5;exitDx=0;exitDy=0;" edge="1" parent="1" source="g6QIf9VLLvqrXvjE8-ta-5">
          <mxGeometry width="50" height="50" relative="1" as="geometry">
            <mxPoint x="720" y="350" as="sourcePoint" />
            <mxPoint x="670" y="250" as="targetPoint" />
          </mxGeometry>
        </mxCell>
        <mxCell id="g6QIf9VLLvqrXvjE8-ta-8" value="q3" style="ellipse;whiteSpace=wrap;html=1;aspect=fixed;" vertex="1" parent="1">
          <mxGeometry x="670" y="210" width="80" height="80" as="geometry" />
        </mxCell>
        <mxCell id="g6QIf9VLLvqrXvjE8-ta-14" style="rounded=0;orthogonalLoop=1;jettySize=auto;html=1;exitX=0;exitY=0.5;exitDx=0;exitDy=0;entryX=0;entryY=1;entryDx=0;entryDy=0;" edge="1" parent="1" source="g6QIf9VLLvqrXvjE8-ta-10" target="g6QIf9VLLvqrXvjE8-ta-5">
          <mxGeometry relative="1" as="geometry" />
        </mxCell>
        <mxCell id="g6QIf9VLLvqrXvjE8-ta-10" value="q2" style="ellipse;whiteSpace=wrap;html=1;aspect=fixed;" vertex="1" parent="1">
          <mxGeometry x="460" y="360" width="80" height="80" as="geometry" />
        </mxCell>
        <mxCell id="g6QIf9VLLvqrXvjE8-ta-11" value="" style="endArrow=classic;html=1;rounded=0;exitX=0.5;exitY=1;exitDx=0;exitDy=0;entryX=0.5;entryY=0;entryDx=0;entryDy=0;" edge="1" parent="1" source="g6QIf9VLLvqrXvjE8-ta-5" target="g6QIf9VLLvqrXvjE8-ta-10">
          <mxGeometry width="50" height="50" relative="1" as="geometry">
            <mxPoint x="720" y="450" as="sourcePoint" />
            <mxPoint x="770" y="400" as="targetPoint" />
          </mxGeometry>
        </mxCell>
        <mxCell id="g6QIf9VLLvqrXvjE8-ta-12" value="0" style="text;html=1;align=center;verticalAlign=middle;resizable=0;points=[];autosize=1;strokeColor=none;fillColor=none;" vertex="1" parent="1">
          <mxGeometry x="590" y="210" width="30" height="30" as="geometry" />
        </mxCell>
        <mxCell id="g6QIf9VLLvqrXvjE8-ta-13" value="1" style="text;html=1;align=center;verticalAlign=middle;resizable=0;points=[];autosize=1;strokeColor=none;fillColor=none;" vertex="1" parent="1">
          <mxGeometry x="510" y="310" width="30" height="30" as="geometry" />
        </mxCell>
        <mxCell id="g6QIf9VLLvqrXvjE8-ta-15" value="0" style="text;html=1;align=center;verticalAlign=middle;resizable=0;points=[];autosize=1;strokeColor=none;fillColor=none;" vertex="1" parent="1">
          <mxGeometry x="430" y="310" width="30" height="30" as="geometry" />
        </mxCell>
        <mxCell id="g6QIf9VLLvqrXvjE8-ta-17" value="1" style="text;html=1;align=center;verticalAlign=middle;resizable=0;points=[];autosize=1;strokeColor=none;fillColor=none;" vertex="1" parent="1">
          <mxGeometry x="495" y="148" width="30" height="30" as="geometry" />
        </mxCell>
        <mxCell id="g6QIf9VLLvqrXvjE8-ta-18" style="edgeStyle=orthogonalEdgeStyle;rounded=0;orthogonalLoop=1;jettySize=auto;html=1;exitX=0.5;exitY=1;exitDx=0;exitDy=0;entryX=1;entryY=0.5;entryDx=0;entryDy=0;" edge="1" parent="1" source="g6QIf9VLLvqrXvjE8-ta-9" target="g6QIf9VLLvqrXvjE8-ta-9">
          <mxGeometry relative="1" as="geometry" />
        </mxCell>
        <mxCell id="g6QIf9VLLvqrXvjE8-ta-19" value="0, 1" style="text;html=1;align=center;verticalAlign=middle;resizable=0;points=[];autosize=1;strokeColor=none;fillColor=none;" vertex="1" parent="1">
          <mxGeometry x="780" y="280" width="40" height="30" as="geometry" />
        </mxCell>
        <mxCell id="g6QIf9VLLvqrXvjE8-ta-20" value="FSA A" style="text;html=1;align=center;verticalAlign=middle;resizable=0;points=[];autosize=1;strokeColor=none;fillColor=none;" vertex="1" parent="1">
          <mxGeometry x="435" y="60" width="60" height="30" as="geometry" />
        </mxCell>
        <mxCell id="g6QIf9VLLvqrXvjE8-ta-21" value="FSA B" style="text;html=1;align=center;verticalAlign=middle;resizable=0;points=[];autosize=1;strokeColor=none;fillColor=none;" vertex="1" parent="1">
          <mxGeometry x="1260" y="60" width="60" height="30" as="geometry" />
        </mxCell>
        <mxCell id="g6QIf9VLLvqrXvjE8-ta-26" style="edgeStyle=orthogonalEdgeStyle;rounded=0;orthogonalLoop=1;jettySize=auto;html=1;exitX=1;exitY=0.5;exitDx=0;exitDy=0;entryX=0;entryY=0.5;entryDx=0;entryDy=0;" edge="1" parent="1" source="g6QIf9VLLvqrXvjE8-ta-22" target="g6QIf9VLLvqrXvjE8-ta-25">
          <mxGeometry relative="1" as="geometry" />
        </mxCell>
        <mxCell id="g6QIf9VLLvqrXvjE8-ta-22" value="s0" style="ellipse;whiteSpace=wrap;html=1;aspect=fixed;" vertex="1" parent="1">
          <mxGeometry x="1180" y="200" width="80" height="80" as="geometry" />
        </mxCell>
        <mxCell id="g6QIf9VLLvqrXvjE8-ta-23" value="" style="endArrow=classic;html=1;rounded=0;entryX=0;entryY=0.5;entryDx=0;entryDy=0;" edge="1" parent="1" target="g6QIf9VLLvqrXvjE8-ta-22">
          <mxGeometry width="50" height="50" relative="1" as="geometry">
            <mxPoint x="1100" y="240" as="sourcePoint" />
            <mxPoint x="1430" y="320" as="targetPoint" />
          </mxGeometry>
        </mxCell>
        <mxCell id="g6QIf9VLLvqrXvjE8-ta-24" value="START" style="text;html=1;align=center;verticalAlign=middle;resizable=0;points=[];autosize=1;strokeColor=none;fillColor=none;" vertex="1" parent="1">
          <mxGeometry x="1110" y="210" width="60" height="30" as="geometry" />
        </mxCell>
        <mxCell id="g6QIf9VLLvqrXvjE8-ta-29" style="edgeStyle=orthogonalEdgeStyle;rounded=0;orthogonalLoop=1;jettySize=auto;html=1;exitX=1;exitY=0.5;exitDx=0;exitDy=0;" edge="1" parent="1" source="g6QIf9VLLvqrXvjE8-ta-25" target="g6QIf9VLLvqrXvjE8-ta-28">
          <mxGeometry relative="1" as="geometry" />
        </mxCell>
        <mxCell id="g6QIf9VLLvqrXvjE8-ta-25" value="s1" style="ellipse;whiteSpace=wrap;html=1;aspect=fixed;" vertex="1" parent="1">
          <mxGeometry x="1330" y="200" width="80" height="80" as="geometry" />
        </mxCell>
        <mxCell id="g6QIf9VLLvqrXvjE8-ta-27" value="0, 1" style="text;html=1;align=center;verticalAlign=middle;resizable=0;points=[];autosize=1;strokeColor=none;fillColor=none;" vertex="1" parent="1">
          <mxGeometry x="1270" y="208" width="40" height="30" as="geometry" />
        </mxCell>
        <mxCell id="g6QIf9VLLvqrXvjE8-ta-28" value="" style="ellipse;whiteSpace=wrap;html=1;aspect=fixed;" vertex="1" parent="1">
          <mxGeometry x="1490" y="200" width="80" height="80" as="geometry" />
        </mxCell>
        <mxCell id="g6QIf9VLLvqrXvjE8-ta-30" value="0, 1" style="text;html=1;align=center;verticalAlign=middle;resizable=0;points=[];autosize=1;strokeColor=none;fillColor=none;" vertex="1" parent="1">
          <mxGeometry x="1430" y="210" width="40" height="30" as="geometry" />
        </mxCell>
        <mxCell id="g6QIf9VLLvqrXvjE8-ta-31" value="s2" style="ellipse;whiteSpace=wrap;html=1;aspect=fixed;" vertex="1" parent="1">
          <mxGeometry x="1499" y="208" width="62" height="62" as="geometry" />
        </mxCell>
        <mxCell id="g6QIf9VLLvqrXvjE8-ta-33" style="edgeStyle=orthogonalEdgeStyle;rounded=0;orthogonalLoop=1;jettySize=auto;html=1;exitX=0.5;exitY=1;exitDx=0;exitDy=0;entryX=1;entryY=0.5;entryDx=0;entryDy=0;" edge="1" parent="1" source="g6QIf9VLLvqrXvjE8-ta-28" target="g6QIf9VLLvqrXvjE8-ta-28">
          <mxGeometry relative="1" as="geometry" />
        </mxCell>
        <mxCell id="g6QIf9VLLvqrXvjE8-ta-34" value="0, 1" style="text;html=1;align=center;verticalAlign=middle;resizable=0;points=[];autosize=1;strokeColor=none;fillColor=none;" vertex="1" parent="1">
          <mxGeometry x="1590" y="248" width="40" height="30" as="geometry" />
        </mxCell>
      </root>
    </mxGraphModel>
  </diagram>
</mxfile>
